<svg width="1568" height="526" viewBox="0 0 1568 526" fill="none" xmlns="http://www.w3.org/2000/svg">
<path d="M0 518.757V219.981C0 218.325 1.34315 216.981 3 216.981H301.776C304.449 216.981 305.787 220.213 303.897 222.103L5.12132 520.879C3.23143 522.769 0 521.43 0 518.757Z" fill="#464646"/>
<path d="M0 330.428V29C0 27.3431 1.34315 26 3.00001 26H304.428C307.101 26 308.44 29.2314 306.55 31.1213L5.12132 332.55C3.23143 334.44 0 333.101 0 330.428Z" fill="black"/>
<path d="M321.9 131.4C321.9 110.6 326.4 92.1 335.4 75.9C344.4 59.5 356.9 46.8 372.9 37.8C389.1 28.6 407.4 24 427.8 24C452.8 24 474.2 30.6 492 43.8C509.8 57 521.7 75 527.7 97.8H471.3C467.1 89 461.1 82.3 453.3 77.7C445.7 73.1 437 70.8 427.2 70.8C411.4 70.8 398.6 76.3 388.8 87.3C379 98.3 374.1 113 374.1 131.4C374.1 149.8 379 164.5 388.8 175.5C398.6 186.5 411.4 192 427.2 192C437 192 445.7 189.7 453.3 185.1C461.1 180.5 467.1 173.8 471.3 165H527.7C521.7 187.8 509.8 205.8 492 219C474.2 232 452.8 238.5 427.8 238.5C407.4 238.5 389.1 234 372.9 225C356.9 215.8 344.4 203.1 335.4 186.9C326.4 170.7 321.9 152.2 321.9 131.4ZM610.416 97.5C616.416 88.3 623.916 81.1 632.916 75.9C641.916 70.5 651.916 67.8 662.916 67.8V122.1H648.816C636.016 122.1 626.416 124.9 620.016 130.5C613.616 135.9 610.416 145.5 610.416 159.3V237H559.116V69.6H610.416V97.5ZM845.236 150.6C845.236 155.4 844.936 160.4 844.336 165.6H728.236C729.036 176 732.336 184 738.136 189.6C744.136 195 751.436 197.7 760.036 197.7C772.836 197.7 781.736 192.3 786.736 181.5H841.336C838.536 192.5 833.436 202.4 826.036 211.2C818.836 220 809.736 226.9 798.736 231.9C787.736 236.9 775.436 239.4 761.836 239.4C745.436 239.4 730.836 235.9 718.036 228.9C705.236 221.9 695.236 211.9 688.036 198.9C680.836 185.9 677.236 170.7 677.236 153.3C677.236 135.9 680.736 120.7 687.736 107.7C694.936 94.7 704.936 84.7 717.736 77.7C730.536 70.7 745.236 67.2 761.836 67.2C778.036 67.2 792.436 70.6 805.036 77.4C817.636 84.2 827.436 93.9 834.436 106.5C841.636 119.1 845.236 133.8 845.236 150.6ZM792.736 137.1C792.736 128.3 789.736 121.3 783.736 116.1C777.736 110.9 770.236 108.3 761.236 108.3C752.636 108.3 745.336 110.8 739.336 115.8C733.536 120.8 729.936 127.9 728.536 137.1H792.736ZM862.099 153C862.099 135.8 865.299 120.7 871.699 107.7C878.299 94.7 887.199 84.7 898.399 77.7C909.599 70.7 922.099 67.2 935.899 67.2C947.699 67.2 957.999 69.6 966.799 74.4C975.799 79.2 982.699 85.5 987.499 93.3V69.6H1038.8V237H987.499V213.3C982.499 221.1 975.499 227.4 966.499 232.2C957.699 237 947.399 239.4 935.599 239.4C921.999 239.4 909.599 235.9 898.399 228.9C887.199 221.7 878.299 211.6 871.699 198.6C865.299 185.4 862.099 170.2 862.099 153ZM987.499 153.3C987.499 140.5 983.899 130.4 976.699 123C969.699 115.6 961.099 111.9 950.899 111.9C940.699 111.9 931.999 115.6 924.799 123C917.799 130.2 914.299 140.2 914.299 153C914.299 165.8 917.799 176 924.799 183.6C931.999 191 940.699 194.7 950.899 194.7C961.099 194.7 969.699 191 976.699 183.6C983.899 176.2 987.499 166.1 987.499 153.3ZM1169.21 193.5V237H1143.11C1124.51 237 1110.01 232.5 1099.61 223.5C1089.21 214.3 1084.01 199.4 1084.01 178.8V112.2H1063.61V69.6H1084.01V28.8H1135.31V69.6H1168.91V112.2H1135.31V179.4C1135.31 184.4 1136.51 188 1138.91 190.2C1141.31 192.4 1145.31 193.5 1150.91 193.5H1169.21ZM1355.59 150.6C1355.59 155.4 1355.29 160.4 1354.69 165.6H1238.59C1239.39 176 1242.69 184 1248.49 189.6C1254.49 195 1261.79 197.7 1270.39 197.7C1283.19 197.7 1292.09 192.3 1297.09 181.5H1351.69C1348.89 192.5 1343.79 202.4 1336.39 211.2C1329.19 220 1320.09 226.9 1309.09 231.9C1298.09 236.9 1285.79 239.4 1272.19 239.4C1255.79 239.4 1241.19 235.9 1228.39 228.9C1215.59 221.9 1205.59 211.9 1198.39 198.9C1191.19 185.9 1187.59 170.7 1187.59 153.3C1187.59 135.9 1191.09 120.7 1198.09 107.7C1205.29 94.7 1215.29 84.7 1228.09 77.7C1240.89 70.7 1255.59 67.2 1272.19 67.2C1288.39 67.2 1302.79 70.6 1315.39 77.4C1327.99 84.2 1337.79 93.9 1344.79 106.5C1351.99 119.1 1355.59 133.8 1355.59 150.6ZM1303.09 137.1C1303.09 128.3 1300.09 121.3 1294.09 116.1C1288.09 110.9 1280.59 108.3 1271.59 108.3C1262.99 108.3 1255.69 110.8 1249.69 115.8C1243.89 120.8 1240.29 127.9 1238.89 137.1H1303.09ZM1372.45 153C1372.45 135.8 1375.65 120.7 1382.05 107.7C1388.65 94.7 1397.55 84.7 1408.75 77.7C1419.95 70.7 1432.45 67.2 1446.25 67.2C1457.25 67.2 1467.25 69.5 1476.25 74.1C1485.45 78.7 1492.65 84.9 1497.85 92.7V15H1549.15V237H1497.85V213C1493.05 221 1486.15 227.4 1477.15 232.2C1468.35 237 1458.05 239.4 1446.25 239.4C1432.45 239.4 1419.95 235.9 1408.75 228.9C1397.55 221.7 1388.65 211.6 1382.05 198.6C1375.65 185.4 1372.45 170.2 1372.45 153ZM1497.85 153.3C1497.85 140.5 1494.25 130.4 1487.05 123C1480.05 115.6 1471.45 111.9 1461.25 111.9C1451.05 111.9 1442.35 115.6 1435.15 123C1428.15 130.2 1424.65 140.2 1424.65 153C1424.65 165.8 1428.15 176 1435.15 183.6C1442.35 191 1451.05 194.7 1461.25 194.7C1471.45 194.7 1480.05 191 1487.05 183.6C1494.25 176.2 1497.85 166.1 1497.85 153.3Z" fill="black"/>
<path d="M467.7 289.4V330.5H381.9V374.9H446.1V414.8H381.9V500H330.6V289.4H467.7ZM570.863 502.4C554.463 502.4 539.663 498.9 526.463 491.9C513.463 484.9 503.163 474.9 495.563 461.9C488.163 448.9 484.463 433.7 484.463 416.3C484.463 399.1 488.263 384 495.862 371C503.463 357.8 513.863 347.7 527.063 340.7C540.263 333.7 555.063 330.2 571.463 330.2C587.863 330.2 602.663 333.7 615.863 340.7C629.063 347.7 639.463 357.8 647.063 371C654.663 384 658.463 399.1 658.463 416.3C658.463 433.5 654.563 448.7 646.763 461.9C639.163 474.9 628.663 484.9 615.263 491.9C602.063 498.9 587.263 502.4 570.863 502.4ZM570.863 458C580.663 458 588.963 454.4 595.763 447.2C602.763 440 606.263 429.7 606.263 416.3C606.263 402.9 602.863 392.6 596.063 385.4C589.463 378.2 581.263 374.6 571.463 374.6C561.463 374.6 553.163 378.2 546.563 385.4C539.963 392.4 536.663 402.7 536.663 416.3C536.663 429.7 539.863 440 546.263 447.2C552.863 454.4 561.063 458 570.863 458ZM736.978 360.5C742.978 351.3 750.478 344.1 759.478 338.9C768.478 333.5 778.478 330.8 789.478 330.8V385.1H775.378C762.578 385.1 752.978 387.9 746.578 393.5C740.178 398.9 736.978 408.5 736.978 422.3V500H685.678V332.6H736.978V360.5ZM1027.6 330.8C1048.4 330.8 1064.9 337.1 1077.1 349.7C1089.5 362.3 1095.7 379.8 1095.7 402.2V500H1044.7V409.1C1044.7 398.3 1041.8 390 1036 384.2C1030.4 378.2 1022.6 375.2 1012.6 375.2C1002.6 375.2 994.698 378.2 988.898 384.2C983.298 390 980.498 398.3 980.498 409.1V500H929.498V409.1C929.498 398.3 926.598 390 920.798 384.2C915.198 378.2 907.398 375.2 897.398 375.2C887.398 375.2 879.498 378.2 873.698 384.2C868.098 390 865.298 398.3 865.298 409.1V500H813.998V332.6H865.298V353.6C870.498 346.6 877.298 341.1 885.698 337.1C894.098 332.9 903.598 330.8 914.198 330.8C926.798 330.8 937.998 333.5 947.798 338.9C957.798 344.3 965.598 352 971.198 362C976.998 352.8 984.898 345.3 994.898 339.5C1004.9 333.7 1015.8 330.8 1027.6 330.8Z" fill="#464646"/>
</svg>
